<svg width="261" height="106" viewBox="0 0 261 106" fill="none" xmlns="http://www.w3.org/2000/svg">
<path d="M260.1 88.3C260.1 97.9 252.3 105.6 242.8 105.6C233.3 105.6 225.5 97.8 225.5 88.3C225.5 78.8 233.3 71 242.8 71C252.3 71 260.1 78.7 260.1 88.3Z" fill="#E94D5F"/>
<path d="M208.1 94.9001C218.7 86.6001 225.5 73.8001 225.5 59.3001C225.5 44.8001 218.7 32.0001 208.1 23.7001C200.4 17.7001 190.8 14.1001 180.3 14.1001C155.3 14.1001 135.1 34.3001 135.1 59.3001C135.1 84.3001 155.3 104.5 180.3 104.5C190.8 104.5 200.4 100.9 208.1 94.9001Z" fill="url(#paint0_linear_255_2497)"/>
<path d="M90.2 56.1998V0.299805C77.7 0.299805 66.8 6.89981 60.7 16.7998C55.9 14.9998 50.6 13.9998 45.2 13.9998C20.2 13.9998 0 34.1998 0 59.1998C0 84.1998 20.2 104.4 45.2 104.4C55.7 104.4 65.3 100.8 73 94.7998C83.6 86.4998 90.4 73.6998 90.4 59.1998C90.3 58.1998 90.3 57.1998 90.2 56.1998Z" fill="url(#paint1_linear_255_2497)"/>
<path d="M112.4 35.1001C102.9 35.1001 95.2002 42.8001 95.2002 52.3001V104.4C114.3 104.4 129.9 88.9001 129.9 69.7001V52.6001C129.8 43.0001 122 35.1001 112.4 35.1001Z" fill="url(#paint2_linear_255_2497)"/>
<path d="M112.5 34.9999C122.055 34.9999 129.8 27.2544 129.8 17.6999C129.8 8.14538 122.055 0.399902 112.5 0.399902C102.946 0.399902 95.2002 8.14538 95.2002 17.6999C95.2002 27.2544 102.946 34.9999 112.5 34.9999Z" fill="url(#paint3_linear_255_2497)"/>
<path d="M112.5 35.3C102.8 35.3 94.7998 27.4 94.7998 17.6C94.7998 7.8 102.8 0 112.5 0C122.2 0 130.2 7.9 130.2 17.7C130.2 27.5 122.3 35.3 112.5 35.3ZM112.5 0.7C103.1 0.7 95.4998 8.3 95.4998 17.7C95.4998 27.1 103.1 34.7 112.5 34.7C121.9 34.7 129.5 27.1 129.5 17.7C129.5 8.3 121.9 0.7 112.5 0.7Z" fill="url(#paint4_linear_255_2497)"/>
<defs>
<linearGradient id="paint0_linear_255_2497" x1="135.101" y1="59.2723" x2="225.458" y2="59.2723" gradientUnits="userSpaceOnUse">
<stop stop-color="#56509A"/>
<stop offset="1" stop-color="#E94D5F"/>
</linearGradient>
<linearGradient id="paint1_linear_255_2497" x1="-0.0664" y1="52.3974" x2="90.2907" y2="52.3974" gradientUnits="userSpaceOnUse">
<stop stop-color="#2EAAE1"/>
<stop offset="1" stop-color="#4A63A9"/>
</linearGradient>
<linearGradient id="paint2_linear_255_2497" x1="95.1872" y1="69.7964" x2="129.842" y2="69.7964" gradientUnits="userSpaceOnUse">
<stop stop-color="#4A63A9"/>
<stop offset="1" stop-color="#56509A"/>
</linearGradient>
<linearGradient id="paint3_linear_255_2497" x1="95.1872" y1="17.6718" x2="129.842" y2="17.6718" gradientUnits="userSpaceOnUse">
<stop stop-color="#4A63A9"/>
<stop offset="1" stop-color="#56509A"/>
</linearGradient>
<linearGradient id="paint4_linear_255_2497" x1="94.8471" y1="17.6719" x2="130.181" y2="17.6719" gradientUnits="userSpaceOnUse">
<stop stop-color="#4A63A9"/>
<stop offset="1" stop-color="#56509A"/>
</linearGradient>
</defs>
</svg>
